<svg width="16" height="16" viewBox="0 0 16 16" fill="none" xmlns="http://www.w3.org/2000/svg">
  <path d="M8 1C8 3 6 5 6 7C6 9 7 10 8 10C9 10 10 9 10 7C10 5 8 3 8 1Z" stroke="currentColor" stroke-width="1.5" fill="none"/>
  <path d="M5 9C5 11.5 6.5 13 8 13C9.5 13 11 11.5 11 9" stroke="currentColor" stroke-width="1.5" fill="none"/>
  <path d="M8 15C11 15 13 13 13 10C13 8 12 6 11 5" stroke="currentColor" stroke-width="1.5" fill="none"/>
  <path d="M3 10C3 13 5 15 8 15" stroke="currentColor" stroke-width="1.5" fill="none"/>
</svg> 