<svg width="16" height="16" viewBox="0 0 16 16" fill="none" xmlns="http://www.w3.org/2000/svg">
  <path d="M8 3C8 1.34315 6.65685 0 5 0C3.34315 0 2 1.34315 2 3C2 4.65685 3.34315 6 5 6C6.10457 6 7.04493 5.38071 7.5 4.5C7.95507 5.38071 8.89543 6 10 6C11.6569 6 13 4.65685 13 3C13 1.34315 11.6569 0 10 0C8.34315 0 7 1.34315 7 3" stroke="currentColor" stroke-width="1.5" fill="none"/>
  <path d="M7.5 4.5V14L5 12L7.5 14L10 12" stroke="currentColor" stroke-width="1.5" fill="none" stroke-linecap="round" stroke-linejoin="round"/>
</svg> 