<svg width="16" height="16" viewBox="0 0 16 16" fill="none" xmlns="http://www.w3.org/2000/svg">
  <path d="M8 10C9.10457 10 10 9.10457 10 8C10 6.89543 9.10457 6 8 6C6.89543 6 6 6.89543 6 8C6 9.10457 6.89543 10 8 10Z" fill="currentColor"/>
  <path d="M14.7 8C14.7 8.31 14.67 8.61 14.62 8.9L15.63 9.65C15.73 9.72 15.76 9.86 15.71 9.97L14.71 11.78C14.66 11.89 14.52 11.92 14.41 11.88L13.2 11.38C12.91 11.59 12.59 11.76 12.24 11.89L12.04 13.19C12.02 13.31 11.91 13.4 11.79 13.4H9.79C9.67 13.4 9.56 13.31 9.54 13.19L9.34 11.89C8.99 11.76 8.67 11.59 8.38 11.38L7.17 11.88C7.06 11.92 6.92 11.89 6.87 11.78L5.87 9.97C5.82 9.86 5.85 9.72 5.95 9.65L6.96 8.9C6.91 8.61 6.88 8.31 6.88 8C6.88 7.69 6.91 7.39 6.96 7.1L5.95 6.35C5.85 6.28 5.82 6.14 5.87 6.03L6.87 4.22C6.92 4.11 7.06 4.08 7.17 4.12L8.38 4.62C8.67 4.41 8.99 4.24 9.34 4.11L9.54 2.81C9.56 2.69 9.67 2.6 9.79 2.6H11.79C11.91 2.6 12.02 2.69 12.04 2.81L12.24 4.11C12.59 4.24 12.91 4.41 13.2 4.62L14.41 4.12C14.52 4.08 14.66 4.11 14.71 4.22L15.71 6.03C15.76 6.14 15.73 6.28 15.63 6.35L14.62 7.1C14.67 7.39 14.7 7.69 14.7 8Z" fill="currentColor"/>
</svg> 